<svg xmlns="http://www.w3.org/2000/svg" width="336.871" height="33.552" viewBox="0 0 336.871 33.552">
    <g transform="translate(-792 -634)">
        <path d="M13.247,26.482H.011V33.1H13.249V26.482Zm19.849,0H19.867V33.1H33.1Zm0-13.24H0v6.621H33.1V13.242ZM33.1,0H26.482V6.622H33.1ZM19.868,0H.011V6.622H19.868Z" transform="translate(1011.448 634.448)" fill="#fb7b6b"/>
        <path d="M40.646,6.188A16.969,16.969,0,0,1,35.852,7.5a8.413,8.413,0,0,0,3.67-4.62,17.245,17.245,0,0,1-5.306,2.009,8.346,8.346,0,0,0-14.442,5.7A8.543,8.543,0,0,0,19.99,12.5,23.645,23.645,0,0,1,2.783,3.8,8.182,8.182,0,0,0,1.653,8a8.35,8.35,0,0,0,3.713,6.95A8.322,8.322,0,0,1,1.585,13.9v.1a8.353,8.353,0,0,0,6.7,8.191,8.425,8.425,0,0,1-3.753.144,8.377,8.377,0,0,0,7.812,5.8A16.744,16.744,0,0,1,1.985,31.711,17.721,17.721,0,0,1,0,31.6a23.748,23.748,0,0,0,12.823,3.748c15.363,0,23.754-12.719,23.754-23.732,0-.355,0-.713-.025-1.069a16.86,16.86,0,0,0,4.174-4.324l-.08-.034Z" transform="translate(792 631.754)" fill="#fb7b6b"/>
        <path d="M16.97.3A16.971,16.971,0,0,0,11.6,33.368c.849.16,1.16-.365,1.16-.816,0-.4-.014-1.471-.021-2.885C8.021,30.691,7.026,27.39,7.026,27.39a4.5,4.5,0,0,0-1.888-2.482c-1.537-1.052.119-1.031.119-1.031a3.558,3.558,0,0,1,2.6,1.748A3.616,3.616,0,0,0,12.8,27.036a3.618,3.618,0,0,1,1.075-2.27c-3.769-.424-7.73-1.884-7.73-8.386A6.547,6.547,0,0,1,7.89,11.827a6.034,6.034,0,0,1,.148-4.491s1.421-.455,4.667,1.739a16,16,0,0,1,8.485,0c3.224-2.195,4.646-1.739,4.646-1.739a6.2,6.2,0,0,1,.17,4.491,6.574,6.574,0,0,1,1.739,4.554c0,6.519-3.967,7.955-7.743,8.372a4.063,4.063,0,0,1,1.145,3.139c0,2.271-.021,4.1-.021,4.647,0,.445.3.976,1.167.806A16.949,16.949,0,0,0,16.97.3" transform="translate(844 633.703)" fill="#fb7b6b"/>
        <path d="M17.394,16.919a2.907,2.907,0,0,0-1.969-.539h-1.36l.047,5.72.094,5.743,1.313-.047a2.5,2.5,0,0,0,1.946-.609c.563-.563.609-.844.609-5.157,0-4.477-.047-4.595-.68-5.11ZM0,4.94v33.1H56.261V4.94ZM20.066,29.226c-1.031,1.36-2.485,1.805-5.931,1.805H11.041V13.356h3.282c3.915,0,5.063.422,6.095,2.11.633,1.008.68,1.407.75,6.025.117,5.228-.047,6.4-1.1,7.736ZM32,16.4h-5.79v4.149h3.563v3l-1.688.094-1.758.07v4.149l2.86.07L32,28.03v3H28.248c-3.587,0-3.751-.023-4.384-.7l-.7-.656V22.264c0-7.079.023-7.455.586-8.158.539-.727.586-.727,4.407-.727H32v3.047ZM42.969,29.179a2.977,2.977,0,0,1-2.344,1.852,2.537,2.537,0,0,1-1.571-.914c-.75-.75-1.055-1.477-1.922-4.876l-2.11-7.947-1.055-3.915h1.782a6.616,6.616,0,0,1,1.758.117c0,.141,2.719,10.643,2.954,11.322.094.352.75-1.641,1.711-5.392l1.547-5.907,1.735-.094a4.313,4.313,0,0,1,1.711.094c0,.328-3.915,14.956-4.22,15.659Z" transform="translate(888 629.06)" fill="#fb7b6b"/>
        <path d="M44.133,5.758V33.342A2.709,2.709,0,0,1,41.375,36.1H38.617V11.067L22.067,22.952,5.517,11.067V36.1H2.758A2.708,2.708,0,0,1,0,33.342V5.758A2.711,2.711,0,0,1,2.758,3h.919L22.067,16.332,40.456,3h.919a2.711,2.711,0,0,1,2.758,2.758Z" transform="translate(956 631)" fill="#fb7b6b"/>
        <path d="M28.2,28.207H23.3V20.526c0-1.832-.037-4.189-2.554-4.189-2.556,0-2.946,1.993-2.946,4.053v7.816H12.9V12.413h4.708v2.153h.063a5.165,5.165,0,0,1,4.648-2.551c4.966,0,5.885,3.269,5.885,7.523v8.669ZM7.361,10.251A2.847,2.847,0,1,1,10.207,7.4,2.844,2.844,0,0,1,7.361,10.251ZM9.818,28.207H4.9V12.413H9.818ZM30.652,0H2.443A2.413,2.413,0,0,0,0,2.385V30.715A2.412,2.412,0,0,0,2.443,33.1H30.648A2.422,2.422,0,0,0,33.1,30.715V2.385A2.422,2.422,0,0,0,30.648,0Z" transform="translate(1055 634)" fill="#fb7b6b"/>
        <svg role="img" viewBox="0 0 24 24" xmlns="http://www.w3.org/2000/svg"><title>Discord icon</title><path d="M20.222 0c1.406 0 2.54 1.137 2.607 2.475V24l-2.677-2.273-1.47-1.338-1.604-1.398.67 2.205H3.71c-1.402 0-2.54-1.065-2.54-2.476V2.48C1.17 1.142 2.31.003 3.715.003h16.5L20.222 0zm-6.118 5.683h-.03l-.202.2c2.073.6 3.076 1.537 3.076 1.537-1.336-.668-2.54-1.002-3.744-1.137-.87-.135-1.74-.064-2.475 0h-.2c-.47 0-1.47.2-2.81.735-.467.203-.735.336-.735.336s1.002-1.002 3.21-1.537l-.135-.135s-1.672-.064-3.477 1.27c0 0-1.805 3.144-1.805 7.02 0 0 1 1.74 3.743 1.806 0 0 .4-.533.805-1.002-1.54-.468-2.14-1.404-2.14-1.404s.134.066.335.2h.06c.03 0 .044.015.06.03v.006c.016.016.03.03.06.03.33.136.66.27.93.4.466.202 1.065.403 1.8.536.93.135 1.996.2 3.21 0 .6-.135 1.2-.267 1.8-.535.39-.2.87-.4 1.397-.737 0 0-.6.936-2.205 1.404.33.466.795 1 .795 1 2.744-.06 3.81-1.8 3.87-1.726 0-3.87-1.815-7.02-1.815-7.02-1.635-1.214-3.165-1.26-3.435-1.26l.056-.02zm.168 4.413c.703 0 1.27.6 1.27 1.335 0 .74-.57 1.34-1.27 1.34-.7 0-1.27-.6-1.27-1.334.002-.74.573-1.338 1.27-1.338zm-4.543 0c.7 0 1.266.6 1.266 1.335 0 .74-.57 1.34-1.27 1.34-.7 0-1.27-.6-1.27-1.334 0-.74.57-1.338 1.27-1.338z"/>
    </g>
</svg>