<svg onclick="toogleColorTracker()" xmlns="http://www.w3.org/2000/svg" class="darkLightSwitch" viewBox="0 0 60 60">
          <g transform="translate(-1770 -77)">
            <g transform="translate(1765 77)" fill="#f0f0f0">
              <path
                d="M 32.50009918212891 57.38912582397461 C 29.6693000793457 57.13561248779297 26.91910743713379 56.44950485229492 24.29648971557617 55.3402214050293 C 21.02214050292969 53.95526123046875 18.08097076416016 51.97204208374023 15.55467987060547 49.44564056396484 C 13.02839946746826 46.91926193237305 11.04526996612549 43.97798156738281 9.660369873046875 40.70351028442383 C 8.227119445800781 37.31471252441406 7.500400066375732 33.71343231201172 7.500400066375732 29.99970054626465 C 7.500400066375732 26.28620147705078 8.227119445800781 22.68510055541992 9.660360336303711 19.29644012451172 C 11.04524993896484 16.02208137512207 13.02837944030762 13.08089065551758 15.55465984344482 10.55456066131592 C 18.08095932006836 8.028210639953613 21.02214050292969 6.045010566711426 24.29648971557617 4.660070896148682 C 26.91910743713379 3.550787448883057 29.66930198669434 2.864686012268066 32.50009918212891 2.611173152923584 L 32.50009918212891 57.38912582397461 Z"
                stroke="none" />
              <path
                d="M 30.00009918212891 5.497642517089844 C 28.38278198242188 5.825485229492188 26.8024959564209 6.314552307128906 25.2703742980957 6.962589263916016 C 22.29402542114258 8.221477508544922 19.61996269226074 10.02474975585938 17.32245063781738 12.32231140136719 C 15.02495002746582 14.61985015869141 13.22173690795898 17.29393768310547 11.96287536621094 20.27028656005859 C 10.66067504882813 23.34913635253906 10.00040054321289 26.62258911132813 10.00040054321289 29.99970054626465 C 10.00040054321289 33.37705230712891 10.66068649291992 36.65068817138672 11.96290016174316 39.72969055175781 C 13.22176170349121 42.70615005493164 15.02498817443848 45.38032531738281 17.32248687744141 47.67791366577148 C 19.61997413635254 49.97551345825195 22.29403686523438 51.77880096435547 25.27038764953613 53.03771209716797 C 26.8025016784668 53.68575286865234 28.38278388977051 54.17481231689453 30.00009918212891 54.50265884399414 L 30.00009918212891 5.497642517089844 M 35.00009918212891 0 L 35.00009918212891 60.00030136108398 C 18.43109893798828 60.00030136108398 5.000400543212891 46.56870269775391 5.000400543212891 29.99970054626465 C 5.000400543212891 13.43160247802734 18.43109893798828 0 35.00009918212891 0 Z"
                stroke="none" fill="#000" />
            </g>
            <g transform="translate(1835 137) rotate(180)" fill="#000">
              <path
                d="M 32.50009918212891 57.38912582397461 C 29.6693000793457 57.13561248779297 26.91910743713379 56.44950485229492 24.29648971557617 55.3402214050293 C 21.02214050292969 53.95526123046875 18.08097076416016 51.97204208374023 15.55467987060547 49.44564056396484 C 13.02839946746826 46.91926193237305 11.04526996612549 43.97798156738281 9.660369873046875 40.70351028442383 C 8.227119445800781 37.31471252441406 7.500400066375732 33.71343231201172 7.500400066375732 29.99970054626465 C 7.500400066375732 26.28620147705078 8.227119445800781 22.68510055541992 9.660360336303711 19.29644012451172 C 11.04524993896484 16.02208137512207 13.02837944030762 13.08089065551758 15.55465984344482 10.55456066131592 C 18.08095932006836 8.028210639953613 21.02214050292969 6.045010566711426 24.29648971557617 4.660070896148682 C 26.91910743713379 3.550787448883057 29.66930198669434 2.864686012268066 32.50009918212891 2.611173152923584 L 32.50009918212891 57.38912582397461 Z"
                stroke="none" />
              <path
                d="M 30.00009918212891 5.497642517089844 C 28.38278198242188 5.825485229492188 26.8024959564209 6.314552307128906 25.2703742980957 6.962589263916016 C 22.29402542114258 8.221477508544922 19.61996269226074 10.02474975585938 17.32245063781738 12.32231140136719 C 15.02495002746582 14.61985015869141 13.22173690795898 17.29393768310547 11.96287536621094 20.27028656005859 C 10.66067504882813 23.34913635253906 10.00040054321289 26.62258911132813 10.00040054321289 29.99970054626465 C 10.00040054321289 33.37705230712891 10.66068649291992 36.65068817138672 11.96290016174316 39.72969055175781 C 13.22176170349121 42.70615005493164 15.02498817443848 45.38032531738281 17.32248687744141 47.67791366577148 C 19.61997413635254 49.97551345825195 22.29403686523438 51.77880096435547 25.27038764953613 53.03771209716797 C 26.8025016784668 53.68575286865234 28.38278388977051 54.17481231689453 30.00009918212891 54.50265884399414 L 30.00009918212891 5.497642517089844 M 35.00009918212891 0 L 35.00009918212891 60.00030136108398 C 18.43109893798828 60.00030136108398 5.000400543212891 46.56870269775391 5.000400543212891 29.99970054626465 C 5.000400543212891 13.43160247802734 18.43109893798828 0 35.00009918212891 0 Z"
                stroke="none" fill="#000" />
            </g>
          </g>
        </svg>